<svg viewBox="0 0 1024 1024" version="1.1" xmlns="http://www.w3.org/2000/svg" p-id="11534">
      <path
        d="M485.124252 133.902458H817.839203a90.629103 90.629103 0 0 1 90.765182 90.765183v574.664718a90.629103 90.629103 0 0 1-90.765182 90.765183H485.124252V133.902458z"
        fill="#D2E1FF" p-id="11535"></path>
      <path
        d="M485.124252 188.334352v647.331296H206.296877a36.469369 36.469369 0 0 1-36.469369-36.469369V223.851163a35.516811 35.516811 0 0 1 35.516811-35.516811h279.779933m54.431894-54.431894H205.344319a89.948704 89.948704 0 0 0-89.948704 89.948705v575.345116a90.901262 90.901262 0 0 0 90.901262 90.901263h330.265515a2.993754 2.993754 0 0 0 2.993754-2.993755V133.902458z"
        fill="#A8BAF4" p-id="11536"></path>
      <path
        d="M512.06804 512.06804m-151.184585 0a151.184585 151.184585 0 1 0 302.36917 0 151.184585 151.184585 0 1 0-302.36917 0Z"
        fill="#1A48D2" p-id="11537"></path>
    </svg>
