<?xml version="1.0" encoding="UTF-8" standalone="no"?>
<svg
   t="1737682471658"
   class="icon"
   viewBox="0 0 1024 1024"
   version="1.1"
   p-id="14953"
   width="200"
   height="200"
   id="svg22"
   xmlns="http://www.w3.org/2000/svg"
   xmlns:svg="http://www.w3.org/2000/svg">
  <defs
     id="defs26" />
  <g
     id="g535"
     transform="matrix(0.92677657,0,0,0.92677657,45.216734,21.930621)">
    <path
       d="m 413.88615,106.1877 19.30223,34.97915 c 1.83224,3.33135 2.78265,6.32957 2.84144,9.01424 1.37174,95.23737 -3.33134,192.7283 2.15558,287.27981 1.70487,29.59021 -9.79808,53.75229 -34.48925,72.50582 -145.01164,1.10718 -232.95924,1.10718 -263.86239,0 -33.99935,-1.27375 -47.716675,-29.98214 -48.402535,-62.21783 -1.43053,-79.56044 -1.69507,-173.78861 -0.78385,-282.67471 0.39192,-40.85801 21.359825,-58.7885 62.413795,-59.47437 86.87961,-1.44032 173.818,-1.24436 260.82498,0.58789 z m -82.49986,266.70383 a 5.1929845,5.1929845 0 0 1 -1.56769,-7.34856 270.4663,270.4663 0 0 0 42.03378,-101.11622 c 0.68586,-3.49792 3.14518,-6.00623 5.78087,-5.87886 l 13.42337,0.68587 c 4.64429,0.25475 7.64251,0.0294 9.01424,-0.68587 22.92751,-11.63032 25.31824,-26.16088 7.1526,-43.60147 a 13.051047,13.051047 0 0 0 -8.62232,-3.52731 l -74.95533,-2.25356 a 5.1439937,5.1439937 0 0 1 -4.99703,-4.99702 c -0.5193,-33.18611 -14.95187,-42.39631 -43.30753,-27.63059 a 9.2297949,9.2297949 0 0 0 -4.70308,7.25058 l -2.5475,20.9679 a 5.7318791,5.7318791 0 0 1 -5.58491,4.99702 l -73.87755,1.86164 c -3.46852,0.0588 -6.6039,1.17577 -8.81827,3.13538 -16.58816,14.43258 -15.8729,28.02252 2.15558,40.76003 2.49851,1.71466 5.64369,2.64548 9.01423,2.64548 l 120.32047,-0.098 c 3.15498,0 6.1336,1.45992 7.95604,3.91923 1.83225,2.44952 2.25356,5.57511 1.15618,8.32838 l -22.73156,56.53494 a 3.2529634,3.2529634 0 0 1 -2.57689,1.97921 3.9388296,3.9388296 0 0 1 -3.30196,-1.09739 c -25.08309,-23.58398 -40.95599,-18.45959 -47.61868,15.383 -0.43112,1.95961 0.58788,4.99702 2.74346,8.1324 l 10.19001,14.89309 a 4.2131761,4.2131761 0 0 1 0.41152,3.72327 6.2707737,6.2707737 0 0 1 -2.76306,3.33135 247.47999,247.47999 0 0 1 -74.85736,29.19829 10.101824,10.101824 0 0 0 -7.1526,5.38895 c -14.3052,30.37406 9.30818,42.03378 35.56704,36.25291 28.87495,-6.40795 55.94706,-17.99908 81.22611,-34.7832 a 7.0056298,7.0056298 0 0 1 8.03443,0.098 231.52871,231.52871 0 0 0 81.42208,34.68522 c 27.92454,5.97683 52.41974,-9.99405 32.03973,-39.8782 a 11.306988,11.306988 0 0 0 -7.74049,-4.70308 190.13181,190.13181 0 0 1 -71.91793,-26.55281 z"
       fill="#6e80d5"
       p-id="14954"
       id="path2"
       style="stroke-width:0.829593" />
    <path
       d="m 413.88615,106.1877 c 51.92985,-11.463762 82.69583,11.95366 82.79381,64.17744 0.19596,94.90424 0.16657,189.42635 -0.098,283.55654 -0.19596,54.1834 -45.56109,60.25822 -92.88583,56.04504 24.69117,-18.75353 36.19412,-42.91561 34.48925,-72.50582 -5.48692,-94.55151 -0.78384,-192.04244 -2.15558,-287.27981 -0.0588,-2.68467 -1.0092,-5.68289 -2.84144,-9.01424 z"
       fill="#5169cc"
       p-id="14955"
       id="path4"
       style="stroke-width:0.829593" />
    <path
       d="m 864.598,357.31258 a 733.44534,733.44534 0 0 1 -53.98744,120.1245 1703.5928,1703.5928 0 0 1 -57.31879,-32.33367 c -32.92156,-19.40021 -15.97088,-63.78553 17.34261,-54.96725 6.99583,1.89103 8.72029,-0.33314 5.19298,-6.6627 C 731.28527,304.23636 665.24619,253.02178 577.71011,229.83951 a 15.569154,15.569154 0 0 1 -7.83847,-4.89904 c -19.20424,-23.06469 -14.75591,-40.33871 13.3254,-51.83186 2.79245,-1.20517 6.04542,-1.37174 9.2102,-0.48991 106.74032,28.21848 187.73128,94.091 242.99247,197.62735 a 3.1353869,3.1353869 0 0 0 5.48693,0.19596 c 3.91923,-6.21199 11.82628,-10.58193 23.71136,-13.12943 z"
       fill="#28d1b3"
       p-id="14956"
       id="path6"
       style="stroke-width:0.829593" />
    <path
       d="m 864.598,357.31258 c 18.55757,-1.90083 29.68819,7.50533 33.41146,28.21848 0.57809,3.0472 0.098,6.34916 -1.37173,9.40616 -19.10626,40.07416 -38.70243,108.3668 -86.02717,82.49986 A 733.44534,733.44534 0 0 0 864.598,357.31258 Z"
       fill="#22b69f"
       p-id="14957"
       id="path8"
       style="stroke-width:0.829593" />
    <path
       d="m 834.22394,538.47914 c 22.40822,13.52136 33.77399,33.53884 34.09733,60.06225 1.17577,98.1768 1.11698,196.38299 -0.19596,294.62838 -0.12738,12.27699 -9.01424,27.92453 -26.65079,46.93282 -136.19336,3.45872 -229.04,3.39013 -278.55951,-0.19597 -41.15196,-3.0374 -40.85801,-60.94407 -41.05398,-89.06458 a 6761.9024,6761.9024 0 0 1 1.76366,-224.37611 c 1.27375,-51.83186 0.29394,-88.47669 60.8461,-89.06458 83.61684,-0.72506 166.86136,-0.36253 249.75315,1.07779 z m -77.2089,136.48731 56.53494,-0.97981 a 9.4355547,9.4355547 0 0 0 7.74049,-4.1152 c 20.67395,-31.94175 2.84144,-50.0682 -31.15791,-49.67628 -47.15817,0.58788 -94.31635,0.84263 -141.48432,0.78384 -21.41861,-0.0686 -28.31647,14.10925 -20.67396,42.52369 1.56769,5.81026 6.51573,9.87647 12.14962,9.99404 l 52.41975,1.37173 a 4.997023,4.997023 0 0 1 4.99702,4.89905 6089.6069,6089.6069 0 0 0 1.86164,158.23905 c 0.39192,17.76392 13.7859,23.08428 40.17214,15.97087 A 16.3628,16.3628 0 0 0 751.52811,838.3005 L 752.116,679.96347 a 4.997023,4.997023 0 0 1 4.89904,-4.99702 z"
       fill="#f1eff2"
       p-id="14958"
       id="path10"
       style="stroke-width:0.829593" />
    <path
       d="m 834.22394,538.47914 c 56.14302,-4.01721 93.5717,-1.46971 93.4737,63.88351 0,81.05954 0.196,162.11909 0.5879,243.18843 0.2939,64.66735 -8.0344,109.73854 -86.81102,94.55151 17.63655,-19.00829 26.52341,-34.65583 26.65079,-46.93282 1.31294,-98.24539 1.37173,-196.45158 0.19596,-294.62838 -0.32334,-26.52341 -11.68911,-46.54089 -34.09733,-60.06225 z"
       fill="#ddebf0"
       p-id="14959"
       id="path12"
       style="stroke-width:0.829593" />
    <path
       d="m 269.95231,655.56624 c -34.02875,-30.83457 -72.73118,-52.41975 -116.10729,-64.76533 17.04866,-54.86927 73.38764,-12.93347 109.34661,8.32837 26.25886,15.48097 30.668,35.2731 6.76068,56.43696 z"
       fill="#22b69f"
       p-id="14960"
       id="path14"
       style="stroke-width:0.829593" />
    <path
       d="m 153.84502,590.80091 c 43.37611,12.34558 82.07854,33.93076 116.10729,64.76533 l -23.31944,4.31116 a 3.4979158,3.4979158 0 0 0 -2.5475,1.89103 3.2725601,3.2725601 0 0 0 0.098,3.10599 c 41.87701,74.32826 103.14442,123.7106 183.81204,148.14702 22.63358,6.85866 42.32773,20.57598 28.41445,45.75705 -7.76988,14.10924 -19.40021,18.87111 -34.88118,14.3052 C 311.53537,840.22092 232.22969,774.57376 183.63119,676.14222 a 3.6252907,3.6252907 0 0 0 -5.68289,-1.07779 c -26.12169,23.44681 -44.80663,19.16505 -56.04503,-12.83549 a 11.80669,11.80669 0 0 1 0.58788,-9.2102 z"
       fill="#28d1b3"
       p-id="14961"
       id="path16"
       style="stroke-width:0.829593" />
    <path
       d="m 331.38629,372.89153 a 190.13181,190.13181 0 0 0 71.91793,26.55281 c 3.25297,0.4899 6.05522,2.19477 7.74049,4.70308 20.38001,29.88415 -4.11519,45.85503 -32.03973,39.8782 a 231.52871,231.52871 0 0 1 -81.42208,-34.68522 7.0056298,7.0056298 0 0 0 -8.03443,-0.098 c -25.27905,16.78412 -52.35116,28.37525 -81.22611,34.7832 -26.25886,5.78087 -49.87224,-5.87885 -35.56704,-36.25291 1.30314,-2.72387 3.94863,-4.72268 7.1526,-5.38895 a 247.47999,247.47999 0 0 0 74.85736,-29.19829 6.2707737,6.2707737 0 0 0 2.76306,-3.33135 4.2131761,4.2131761 0 0 0 -0.41152,-3.72327 l -10.19001,-14.89309 c -2.15558,-3.13538 -3.17458,-6.17279 -2.74346,-8.1324 6.66269,-33.84259 22.53559,-38.96698 47.61868,-15.383 0.88183,0.86224 2.12619,1.27376 3.30196,1.09739 a 3.2529634,3.2529634 0 0 0 2.57689,-1.97921 l 22.73156,-56.53494 a 8.5635254,8.5635254 0 0 0 -1.15618,-8.32838 c -1.82244,-2.45932 -4.80106,-3.91923 -7.95604,-3.91923 l -120.32047,0.098 c -3.37054,0 -6.51572,-0.93082 -9.01423,-2.64548 -18.02848,-12.73751 -18.74374,-26.32745 -2.15558,-40.76003 2.21437,-1.95961 5.34975,-3.0766 8.81827,-3.13538 l 73.87755,-1.86164 a 5.7318791,5.7318791 0 0 0 5.58491,-4.99702 l 2.5475,-20.9679 a 9.2297949,9.2297949 0 0 1 4.70308,-7.25058 c 28.35566,-14.76572 42.78823,-5.55552 43.30753,27.63059 0.0588,2.69447 2.25356,4.89904 4.99703,4.99702 l 74.95533,2.25356 c 3.34115,0.12738 6.41775,1.38153 8.62232,3.52731 18.16564,17.44059 15.77491,31.97115 -7.1526,43.60147 -1.37173,0.71527 -4.36995,0.94062 -9.01424,0.68587 l -13.42337,-0.68587 c -2.63569,-0.12737 -5.09501,2.38094 -5.78087,5.87886 a 270.4663,270.4663 0 0 1 -42.03378,101.11622 5.1929845,5.1929845 0 0 0 1.56769,7.34856 z"
       fill="#f1eff2"
       p-id="14962"
       id="path18"
       style="stroke-width:0.829593" />
    <path
       d="m 752.116,679.96347 -0.58789,158.33703 a 16.3628,16.3628 0 0 1 -11.95366,15.67693 c -26.38624,7.11341 -39.78022,1.79305 -40.17214,-15.97087 a 6089.6069,6089.6069 0 0 1 -1.86164,-158.23905 4.997023,4.997023 0 0 0 -4.99702,-4.89905 l -52.41975,-1.37173 c -5.63389,-0.11757 -10.58193,-4.18378 -12.14962,-9.99404 -7.64251,-28.41444 -0.74465,-42.59227 20.67396,-42.52369 47.16797,0.0588 94.32615,-0.19596 141.48432,-0.78384 33.99935,-0.39193 51.83186,17.73453 31.15791,49.67628 a 9.4355547,9.4355547 0 0 1 -7.74049,4.1152 l -56.53494,0.97981 a 4.997023,4.997023 0 0 0 -4.89904,4.99702 z"
       fill="#7a6d79"
       p-id="14963"
       id="path20"
       style="stroke-width:0.829593" />
  </g>
</svg>
