<svg viewBox="0 0 1024 1024" version="1.1" xmlns="http://www.w3.org/2000/svg" p-id="1464">
      <path
        d="M680.017498 980.324843H297.200593c-135.288224 0-246.01143-110.723206-246.011431-246.01143V351.460382c0-135.288224 110.723206-246.01143 246.011431-246.01143h382.78078c135.288224 0 246.01143 110.723206 246.01143 246.01143v382.780781c0.036125 135.360474-110.687081 246.08368-245.975305 246.08368z m0 0"
        fill="#d81e06" p-id="1465" data-spm-anchor-id="a313x.search_index.0.i0.74d03a81Y5a592" class="selected"></path>
      <path
        d="M727.305158 344.524377h-91.938193V311.758978c0-15.100261-11.343258-26.443519-26.443519-26.443519h-241.820927c-15.100261 0-26.443519 11.343258-26.443519 26.443519v31.501023H248.684682c-10.078882 1.264376-18.893389 10.078882-18.893389 20.157765s8.814506 18.893389 18.893389 18.893389h479.884852c10.078882 0 18.893389-8.814506 18.893388-18.893389-1.264376-10.078882-10.078882-18.893389-20.157764-18.893389z m-73.080929 78.066183H321.729486c-5.057504 0-10.078882 1.264376-12.607635 5.021378-3.793128 3.793128-5.021379 7.550131-5.021378 12.607634v304.822974c0 30.236647 25.179143 55.415791 55.41579 55.41579H617.737952c30.236647 0 55.415791-25.179143 55.415791-55.41579v-304.822974c-0.036125-10.042757-8.850631-17.629013-18.929514-17.629012z m-214.113032 293.479714c0 10.078882-8.814506 18.893389-18.893388 18.893389-10.078882 0-18.893389-8.814506-18.893389-18.893389v-199.01277c0-10.078882 8.814506-18.893389 18.893389-18.893389 10.078882 0 18.893389 8.814506 18.893388 18.893389v199.01277z m133.518098 0c0 10.078882-8.814506 18.893389-18.893389 18.893389-10.078882 0-18.893389-8.814506-18.893389-18.893389v-199.01277c0-10.078882 8.814506-18.893389 18.893389-18.893389 10.078882 0 18.893389 8.814506 18.893389 18.893389v199.01277z m0 0"
        fill="#FFFFFF" p-id="1466"></path>
    </svg>
