<?xml version="1.0" encoding="utf-8"?>
<!-- Generator: Adobe Illustrator 26.0.1, SVG Export Plug-In . SVG Version: 6.00 Build 0)  -->
<svg version="1.1" id="图层_1" xmlns="http://www.w3.org/2000/svg" xmlns:xlink="http://www.w3.org/1999/xlink" x="0px" y="0px"
	 viewBox="0 0 48 48" style="enable-background:new 0 0 48 48;" xml:space="preserve">
<style type="text/css">
	.st0{fill:#835DFA;}
	.st1{fill:#FFFFFF;}
	.st2{fill:#CFC0FF;}
</style>
<path class="st0" d="M8.8,5.4h13.5c2.3,0,3.4,1.1,3.4,3.4v13.5c0,2.3-1.1,3.4-3.4,3.4H8.8c-2.3,0-3.4-1.1-3.4-3.4V8.8
	C5.4,6.5,6.5,5.4,8.8,5.4z"/>
<path class="st0" d="M22.3,29.1v10.2c0,1.9,1.5,3.4,3.4,3.4l0,0h13.5c1.9,0,3.4-1.5,3.4-3.4V25.7c0-1.9-1.5-3.4-3.4-3.4l0,0H29.1V24
	c0,2.8-2.3,5.1-5.1,5.1C24,29.1,22.3,29.1,22.3,29.1z"/>
<path class="st1" d="M17.4,13.4h-3.7c0.3,1.1,0.9,2.2,1.8,3.1C16.4,15.6,17,14.5,17.4,13.4z M11,13.4c-0.4,0-0.7-0.4-0.7-0.8
	c0-0.4,0.3-0.7,0.7-0.7h3.8c-0.1-0.2-0.2-0.6-0.4-1.1c0-0.1,0-0.3,0.2-0.3l0.9-0.2c0.3-0.1,0.6,0.1,0.7,0.4l0.5,1.3h3.5
	c0.4,0,0.7,0.3,0.7,0.7s-0.3,0.7-0.7,0.7l0,0h-0.9c-0.6,1.6-1.3,3-2.4,4.2c0.9,0.6,2,1.1,3.2,1.5c0.4,0.1,0.5,0.8,0.2,1.1
	c-0.3,0.4-0.8,0.5-1.3,0.3c-1.2-0.4-2.4-1.1-3.4-1.8c-1,0.7-2.2,1.4-3.7,2c-0.4,0.1-0.8-0.1-1-0.4c-0.3-0.5-0.1-1.1,0.5-1.3
	c1-0.4,2.1-0.9,3-1.5c-1.1-1.2-1.9-2.6-2.3-4.2L11,13.4L11,13.4z M28.3,36.2l2.9-7.6c0.3-0.7,0.8-1.1,1.5-1.2c0.7,0,1.2,0.4,1.5,1.2
	l2.7,7.6c0.1,0.2,0.1,0.4,0.1,0.6c0,0.5-0.4,0.8-1,0.8c-0.5,0-0.9-0.2-1-0.7l-0.4-1.3h-3.9l-0.4,1.3c-0.2,0.4-0.5,0.7-1,0.7
	c-0.6,0-1-0.3-1-0.9c0-0.1,0-0.2,0.1-0.4L28.3,36.2L28.3,36.2z M32.6,29.6l-1.3,4.1h2.6L32.6,29.6z"/>
<path class="st2" d="M7.1,30.8c0.9,0,1.7,0.8,1.7,1.7l0,0v5.1c0,0.9,0.8,1.7,1.7,1.7h0h5.1c0.9,0,1.7,0.8,1.7,1.7
	c0,0.9-0.8,1.7-1.7,1.7c0,0,0,0,0,0h-5.1c-2.8,0-5.1-2.3-5.1-5.1v-5.1C5.4,31.5,6.1,30.8,7.1,30.8C7.1,30.8,7.1,30.8,7.1,30.8z
	 M40.9,17.2c-0.9,0-1.7-0.8-1.7-1.7v0v-5.1c0-0.9-0.8-1.7-1.7-1.7l0,0h-5.1c-0.9,0-1.7-0.8-1.7-1.7c0-0.9,0.8-1.7,1.7-1.7
	c0,0,0,0,0,0h5.1c2.8,0,5.1,2.3,5.1,5.1v5.1C42.6,16.5,41.9,17.2,40.9,17.2z"/>
</svg>
